<?xml version="1.0" standalone="no"?>
<!DOCTYPE svg PUBLIC "-//W3C//DTD SVG 20010904//EN"
 "http://www.w3.org/TR/2001/REC-SVG-20010904/DTD/svg10.dtd">
<svg version="1.0" xmlns="http://www.w3.org/2000/svg"
 width="1024.000000pt" height="1024.000000pt" viewBox="0 0 1024.000000 1024.000000"
 preserveAspectRatio="xMidYMid meet">

<g transform="translate(0.000000,1024.000000) scale(0.100000,-0.100000)"
fill="#000000" stroke="none">
<path d="M8960 9959 c-14 -5 -74 -23 -135 -40 -71 -20 -129 -43 -164 -66 -52
-34 -57 -35 -130 -31 -59 3 -93 11 -150 37 -132 59 -208 30 -271 -102 -15 -31
-33 -64 -40 -72 -23 -28 -57 -17 -117 38 -76 68 -93 77 -152 77 -88 0 -135
-64 -149 -204 l-7 -67 -74 81 c-91 100 -135 130 -194 130 -34 0 -50 -6 -70
-26 -40 -40 -50 -85 -44 -197 6 -113 7 -113 -65 23 -115 217 -168 280 -236
280 -95 -1 -121 -82 -86 -265 22 -114 28 -185 17 -185 -5 0 -22 22 -37 49 -89
164 -208 314 -285 359 -65 38 -143 38 -195 -1 -99 -76 -153 -268 -155 -554 -1
-60 -5 -83 -13 -82 -7 0 -33 25 -57 56 -67 85 -125 99 -175 44 -16 -18 -19
-36 -19 -101 1 -43 6 -94 11 -112 22 -71 33 -120 28 -126 -10 -9 -44 28 -88
97 -62 97 -156 217 -183 235 -68 45 -114 -5 -97 -104 22 -122 -17 -192 -142
-251 -89 -42 -74 -55 24 -19 115 42 170 117 170 231 0 113 9 106 129 -96 90
-151 151 -229 198 -254 l38 -19 -30 -12 c-16 -7 -41 -16 -55 -20 -24 -8 -103
-37 -300 -110 -47 -17 -105 -38 -130 -46 -25 -8 -54 -19 -65 -24 -34 -14 -108
-41 -155 -56 -25 -8 -54 -19 -65 -24 -22 -9 -202 -76 -250 -92 -16 -5 -39 -14
-50 -18 -11 -4 -36 -13 -55 -20 -19 -7 -44 -16 -55 -20 -11 -4 -36 -13 -55
-20 -19 -7 -44 -16 -55 -20 -11 -4 -33 -13 -50 -18 -53 -19 -339 -123 -360
-132 -11 -4 -36 -13 -55 -20 -19 -7 -44 -16 -55 -20 -11 -4 -36 -13 -55 -20
-19 -7 -44 -16 -55 -20 -11 -4 -33 -13 -50 -18 -16 -6 -75 -27 -130 -47 -55
-20 -125 -46 -155 -57 -30 -11 -64 -24 -75 -28 -11 -4 -36 -13 -55 -20 -19 -7
-44 -16 -55 -21 -45 -18 -118 -39 -123 -34 -9 8 -14 199 -5 211 4 6 100 50
213 98 113 48 220 94 238 102 17 8 47 20 65 28 17 8 52 23 77 34 25 11 95 41
155 67 61 26 128 55 150 65 22 10 74 32 115 50 41 18 93 40 115 50 22 10 159
66 305 125 146 59 285 116 310 128 25 11 58 25 74 32 16 7 25 15 20 18 -5 3
-70 -13 -144 -35 -146 -43 -176 -52 -230 -67 -19 -5 -66 -19 -105 -31 -38 -12
-83 -25 -100 -30 -46 -12 -225 -72 -385 -129 -80 -29 -183 -65 -230 -81 -47
-16 -130 -45 -185 -65 -178 -65 -319 -116 -365 -131 -25 -8 -54 -19 -65 -24
-11 -5 -49 -19 -85 -31 -35 -12 -79 -28 -96 -35 l-31 -13 -7 -283 c-26 -1057
-34 -3189 -17 -4368 5 -311 8 -566 7 -567 -1 -2 -56 38 -121 87 -66 50 -123
90 -127 90 -4 0 -29 13 -55 28 -103 60 -258 116 -428 154 -82 18 -429 18 -510
-1 -277 -63 -494 -170 -698 -345 -175 -151 -342 -402 -425 -641 -59 -168 -77
-291 -76 -520 0 -214 4 -238 63 -457 31 -117 136 -325 224 -444 71 -97 247
-269 343 -337 172 -120 350 -196 559 -238 127 -26 387 -32 490 -11 251 51 386
108 619 257 208 133 298 202 417 319 234 231 440 531 624 911 79 164 115 242
115 250 0 3 9 24 19 48 35 76 79 201 101 282 27 102 86 335 100 400 6 28 20
86 30 130 44 184 128 591 170 820 6 30 15 80 20 110 6 30 15 80 20 110 6 30
14 79 19 108 6 28 19 104 30 167 25 139 89 504 101 580 5 30 14 82 19 115 26
157 33 194 41 250 5 33 14 92 20 130 6 39 15 95 20 125 31 204 188 524 360
735 132 161 407 401 590 513 115 72 138 84 260 144 132 64 131 64 225 98 33
12 69 26 80 30 11 5 101 39 200 75 245 90 287 106 310 115 11 4 56 22 100 38
227 86 382 145 400 152 11 4 56 22 100 38 134 51 429 163 450 172 11 4 56 22
100 38 44 17 139 53 211 81 73 28 136 51 141 51 6 0 13 -145 17 -357 22 -1144
44 -2004 72 -2828 l6 -190 -90 91 c-216 216 -452 343 -762 411 -105 23 -424
23 -530 0 -147 -32 -319 -94 -410 -147 -25 -14 -52 -29 -60 -32 -31 -12 -188
-134 -259 -202 -219 -211 -376 -488 -431 -762 -6 -32 -17 -79 -23 -104 -16
-63 -15 -429 2 -500 54 -232 79 -306 147 -441 101 -202 292 -427 470 -551 440
-309 994 -352 1474 -114 205 102 427 300 568 507 50 74 138 257 170 354 29 87
35 111 64 240 8 39 13 131 13 260 0 129 -5 221 -13 260 -29 129 -35 153 -64
240 -35 106 -102 246 -159 336 l-42 64 7 185 c7 193 18 559 36 1180 28 991 53
2431 42 2441 -6 7 -71 -10 -117 -31 -11 -5 -67 -25 -125 -45 -58 -20 -136 -48
-175 -62 -143 -52 -292 -105 -345 -123 -30 -10 -100 -35 -155 -55 -199 -73
-321 -117 -375 -135 -30 -10 -73 -25 -95 -33 -22 -9 -103 -38 -180 -66 -77
-27 -178 -64 -225 -81 -47 -18 -96 -35 -110 -40 -14 -5 -63 -23 -110 -40 -47
-17 -96 -35 -110 -40 -14 -4 -43 -15 -65 -23 -22 -9 -85 -32 -140 -52 -118
-43 -195 -72 -250 -94 -65 -26 -307 -151 -352 -182 -23 -16 -44 -29 -48 -29
-9 0 -84 -52 -215 -149 -130 -97 -358 -318 -448 -433 -182 -234 -336 -537
-390 -768 -10 -42 -16 -79 -42 -260 -6 -38 -15 -98 -20 -132 -5 -35 -14 -99
-20 -143 -6 -44 -15 -107 -20 -140 -5 -33 -26 -166 -45 -295 -20 -129 -40
-264 -46 -300 -15 -92 -26 -163 -39 -250 -11 -75 -21 -138 -40 -250 -5 -33
-14 -87 -20 -120 -27 -159 -31 -188 -40 -235 -5 -27 -21 -120 -35 -205 -28
-167 -98 -537 -116 -610 -6 -25 -14 -63 -19 -85 -25 -112 -54 -226 -72 -280
-27 -81 -87 -244 -100 -275 -6 -14 -14 -34 -18 -45 -86 -220 -359 -725 -402
-743 -4 -2 -8 -11 -8 -19 0 -9 -3 -14 -6 -11 -6 7 2 35 45 160 56 163 74 283
75 483 0 195 -17 307 -70 478 -24 73 -36 105 -77 197 -6 14 -38 70 -70 124
l-59 99 11 681 c6 375 11 1199 11 1832 l0 1151 25 11 c43 20 68 30 115 46 25
8 83 29 130 46 47 18 114 42 150 55 36 13 103 38 150 55 47 17 105 38 130 46
25 8 54 19 65 24 19 8 61 23 190 70 33 12 96 36 140 52 44 16 100 36 125 44
25 8 54 19 65 23 11 5 36 14 55 21 19 7 44 16 55 20 11 4 45 17 75 28 30 11
100 37 155 57 55 20 114 41 130 47 17 5 39 14 50 18 11 4 36 13 55 20 19 7 44
16 55 20 11 4 36 13 55 20 19 7 44 16 55 20 11 5 79 29 150 55 137 49 227 82
260 95 11 4 36 13 55 20 19 7 44 16 55 20 11 4 36 13 55 20 19 7 44 16 55 20
11 5 79 29 150 55 72 25 154 55 183 66 28 10 77 28 107 39 30 11 79 29 108 39
28 11 97 36 152 56 55 20 124 45 153 55 28 11 78 29 110 41 31 12 66 25 77 29
11 5 40 16 65 24 25 8 83 29 130 46 47 18 114 42 150 55 36 13 103 37 150 55
47 17 105 38 130 46 25 8 54 19 65 23 11 5 36 14 55 21 19 7 44 16 55 20 11 4
45 17 75 28 30 11 100 37 155 57 55 20 114 41 130 47 17 5 39 14 50 18 11 4
36 14 55 21 19 7 39 15 43 19 5 4 13 99 18 211 10 205 21 435 39 779 25 466
25 484 4 477 -28 -8 -166 -57 -189 -67 -11 -5 -78 -30 -150 -55 -71 -26 -139
-50 -150 -55 -11 -4 -36 -13 -55 -20 -19 -7 -44 -16 -55 -20 -11 -4 -36 -13
-55 -20 -19 -7 -44 -16 -55 -21 -11 -4 -40 -15 -65 -23 -25 -8 -104 -37 -177
-64 -73 -27 -134 -47 -137 -44 -4 3 -6 23 -6 45 0 22 -7 91 -16 154 -9 63 -14
117 -10 120 4 4 40 -26 80 -67 110 -110 173 -134 230 -89 44 35 56 70 56 167
0 74 3 92 19 106 18 16 21 15 72 -26 88 -71 104 -78 164 -78 50 0 58 3 93 38
23 23 47 63 61 100 30 80 61 106 115 97 22 -3 45 -9 51 -14 24 -18 97 -31 172
-31 70 0 84 3 125 29 25 16 48 34 52 39 3 6 61 32 129 58 67 26 126 51 132 56
5 4 17 8 27 8 10 0 18 5 18 10 0 12 -15 11 -50 -1z m-2427 -351 c45 -46 131
-172 189 -278 41 -74 128 -282 128 -304 0 -8 -10 -17 -22 -21 -13 -3 -32 -10
-43 -15 -11 -5 -40 -16 -65 -24 -48 -16 -105 -36 -240 -86 -290 -107 -294
-109 -359 -129 l-28 -9 14 47 c12 40 11 60 -2 149 -8 56 -15 105 -15 108 0 4
18 -10 39 -29 53 -47 75 -58 122 -59 77 -1 109 55 109 194 0 246 59 498 116
498 8 0 34 -19 57 -42z m577 -241 c0 -11 77 -125 112 -165 30 -35 29 -52 -2
-52 -10 0 -21 -4 -24 -9 -8 -12 -52 -19 -66 -11 -7 4 -17 29 -22 56 -5 27 -14
67 -20 89 -5 22 -11 65 -14 95 l-5 55 20 -25 c11 -14 21 -29 21 -33z m1508
-5587 c4 -563 -20 -872 -78 -1015 -4 -11 -13 -36 -20 -55 -7 -19 -15 -44 -19
-55 -19 -55 -101 -205 -141 -259 -125 -171 -273 -255 -450 -256 -147 0 -255
60 -393 220 -57 66 -144 235 -165 323 -7 26 -17 68 -24 95 -18 70 -15 372 4
442 50 175 145 359 251 483 151 177 316 291 550 381 125 48 374 98 462 92 20
-1 20 -9 23 -396z m-6058 -1075 c52 -8 115 -20 140 -26 25 -5 59 -13 75 -16
17 -3 38 -11 48 -18 15 -10 8 -14 -50 -29 -95 -25 -126 -35 -215 -75 -26 -12
-50 -21 -53 -21 -2 0 -39 -21 -82 -46 -314 -185 -505 -435 -583 -764 -17 -72
-18 -319 -1 -390 22 -93 34 -135 43 -145 4 -5 8 -16 8 -25 0 -24 87 -188 132
-250 62 -84 224 -241 308 -297 42 -28 120 -73 174 -100 l97 -50 -121 -13
c-301 -33 -659 56 -920 229 -201 132 -402 382 -462 574 -53 172 -69 330 -47
466 62 381 294 682 670 867 48 24 94 44 102 44 7 0 17 4 22 8 6 5 30 14 55 21
25 8 56 17 70 21 27 9 114 26 200 39 88 14 287 12 390 -4z"/>
<path d="M5368 8823 c6 -2 18 -2 25 0 6 3 1 5 -13 5 -14 0 -19 -2 -12 -5z"/>
<path d="M5313 8803 c9 -2 23 -2 30 0 6 3 -1 5 -18 5 -16 0 -22 -2 -12 -5z"/>
</g>
</svg>
